<svg width="155" height="154" viewBox="0 0 155 154" fill="none" xmlns="http://www.w3.org/2000/svg">
<circle cx="77.379" cy="77.1976" r="75.639" stroke="#375B25" stroke-width="2"/>
<path d="M17.1973 88.6973V65.4245H31.1519V67.9245H20.0155V75.7882H30.1064V78.2882H20.0155V88.6973H17.1973ZM38.7968 65.4245V88.6973H35.9786V65.4245H38.7968ZM44.4473 88.6973V65.4245H47.2655V86.1973H58.0837V88.6973H44.4473ZM58.0809 67.9245V65.4245H75.5354V67.9245H68.2172V88.6973H65.399V67.9245H58.0809ZM79.8848 88.6973V65.4245H87.7485C89.5667 65.4245 91.0591 65.7351 92.2257 66.3564C93.3924 66.97 94.256 67.8147 94.8167 68.8904C95.3773 69.9662 95.6576 71.1897 95.6576 72.5609C95.6576 73.9321 95.3773 75.148 94.8167 76.2086C94.256 77.2692 93.3962 78.1026 92.2371 78.7086C91.078 79.3071 89.597 79.6064 87.7939 79.6064H81.4303V77.0609H87.703C88.9454 77.0609 89.9454 76.8791 90.703 76.5154C91.4682 76.1518 92.0212 75.6367 92.3621 74.97C92.7106 74.2957 92.8848 73.4927 92.8848 72.5609C92.8848 71.6291 92.7106 70.8147 92.3621 70.1177C92.0136 69.4208 91.4568 68.8829 90.6917 68.5041C89.9265 68.1177 88.9151 67.9245 87.6576 67.9245H82.703V88.6973H79.8848ZM90.8394 78.2427L96.5667 88.6973H93.2939L87.6576 78.2427H90.8394ZM101.308 88.6973H98.3536L106.899 65.4245H109.808L118.354 88.6973H115.399L108.444 69.1064H108.263L101.308 88.6973ZM102.399 79.6064H114.308V82.1064H102.399V79.6064ZM121.979 88.6973V65.4245H129.842C131.66 65.4245 133.153 65.7351 134.319 66.3564C135.486 66.97 136.35 67.8147 136.91 68.8904C137.471 69.9662 137.751 71.1897 137.751 72.5609C137.751 73.9321 137.471 75.148 136.91 76.2086C136.35 77.2692 135.49 78.1026 134.331 78.7086C133.172 79.3071 131.691 79.6064 129.888 79.6064H123.524V77.0609H129.797C131.039 77.0609 132.039 76.8791 132.797 76.5154C133.562 76.1518 134.115 75.6367 134.456 74.97C134.804 74.2957 134.979 73.4927 134.979 72.5609C134.979 71.6291 134.804 70.8147 134.456 70.1177C134.107 69.4208 133.551 68.8829 132.785 68.5041C132.02 68.1177 131.009 67.9245 129.751 67.9245H124.797V88.6973H121.979ZM132.933 78.2427L138.66 88.6973H135.388L129.751 78.2427H132.933Z" fill="#375B25"/>
</svg>
